<svg width="48" height="49" viewBox="0 0 48 49" fill="none" xmlns="http://www.w3.org/2000/svg">
<g id="Info icon vector">
<path id="Info icon" d="M21.6 12.0478H26.4V16.8669H21.6V12.0478ZM21.6 21.6861H26.4V36.1434H21.6V21.6861ZM24 0C10.752 0 0 10.7948 0 24.0956C0 37.3964 10.752 48.1912 24 48.1912C37.248 48.1912 48 37.3964 48 24.0956C48 10.7948 37.248 0 24 0ZM24 43.3721C13.416 43.3721 4.8 34.7218 4.8 24.0956C4.8 13.4694 13.416 4.81912 24 4.81912C34.584 4.81912 43.2 13.4694 43.2 24.0956C43.2 34.7218 34.584 43.3721 24 43.3721Z" fill="#1E4359"/>
</g>
</svg>
