<svg xmlns="http://www.w3.org/2000/svg" width="84" height="75" viewBox="0 0 84 75" fill="none">
  <path
    d="M42 8.80199L75.181 66.1306H8.81904L42 8.80199ZM1.1958 61.7241C-2.19721 67.5847 2.03303 74.9436 8.81904 74.9436H75.181C81.967 74.9436 86.1972 67.5847 82.8042 61.7241L49.6232 4.39549C46.2302 -1.46516 37.7698 -1.46516 34.3768 4.39549L1.1958 61.7241ZM37.5935 30.8786V39.6916C37.5935 42.1151 39.5764 44.0981 42 44.0981C44.4236 44.0981 46.4065 42.1151 46.4065 39.6916V30.8786C46.4065 28.455 44.4236 26.4721 42 26.4721C39.5764 26.4721 37.5935 28.455 37.5935 30.8786ZM37.5935 52.9111H46.4065V61.7241H37.5935V52.9111Z"
    fill="#FCCA3E" />
</svg>